<?xml version="1.0" standalone="no"?>
<!DOCTYPE svg PUBLIC "-//W3C//DTD SVG 20010904//EN"
 "http://www.w3.org/TR/2001/REC-SVG-20010904/DTD/svg10.dtd">
<svg version="1.0" xmlns="http://www.w3.org/2000/svg"
 width="500.000000pt" height="500.000000pt" viewBox="0 0 500.000000 500.000000"
 preserveAspectRatio="xMidYMid meet">

<g transform="translate(0.000000,500.000000) scale(0.100000,-0.100000)"
fill="#000000" stroke="none">
<path d="M0 2500 l0 -2500 2500 0 2500 0 0 2500 0 2500 -2500 0 -2500 0 0
-2500z m2549 684 c38 -31 41 -78 10 -118 -16 -20 -29 -26 -62 -26 -54 0 -87
30 -87 79 1 81 78 117 139 65z m-284 -111 c98 -36 178 -124 216 -236 l17 -49
16 49 c44 131 153 230 285 258 l33 7 -4 -68 c-10 -182 -167 -340 -333 -338
-112 1 -235 85 -290 198 -24 49 -44 153 -37 189 4 19 26 17 97 -10z m-65 -778
l0 -225 -45 0 -45 0 0 218 c0 120 3 222 7 225 3 4 24 7 45 7 l38 0 0 -225z
m130 185 l0 -40 -45 0 -45 0 0 40 0 40 45 0 45 0 0 -40z m1370 -73 l5 -108 50
51 c48 49 51 50 107 50 32 0 58 -3 58 -7 0 -5 -30 -35 -67 -68 l-66 -61 68
-79 c38 -44 75 -88 83 -97 14 -17 11 -18 -45 -18 l-61 0 -49 60 c-60 75 -77
75 -81 -3 l-3 -57 -44 0 -45 0 0 226 0 225 43 -3 42 -3 5 -108z m-1015 28 l0
-50 -52 -3 -53 -3 0 -155 0 -154 -50 0 -50 0 0 155 0 155 -55 0 -55 0 0 55 0
56 158 -3 157 -3 0 -50z m-1445 -151 c58 -107 107 -200 108 -205 2 -5 -23 -9
-56 -9 -57 0 -60 1 -72 30 -12 30 -13 30 -90 30 -77 0 -78 0 -90 -30 -12 -29
-15 -30 -72 -30 -33 0 -58 4 -56 9 8 24 214 401 218 401 3 0 52 -88 110 -196z
m1680 76 c0 -44 -2 -50 -21 -50 -12 0 -36 -15 -55 -34 -33 -33 -34 -36 -34
-120 l0 -86 -45 0 -45 0 0 165 0 165 45 0 c35 0 45 -4 45 -16 0 -13 3 -14 14
-5 15 12 60 29 84 30 8 1 12 -15 12 -49z m-1450 24 c0 -14 2 -14 22 0 52 36
151 7 195 -57 54 -79 31 -184 -51 -232 -49 -29 -110 -33 -144 -9 l-22 15 0
-75 0 -76 -45 0 -45 0 0 225 0 225 45 0 c34 0 45 -4 45 -16z m370 1 c0 -14 3
-13 25 1 32 21 107 14 144 -13 96 -72 96 -204 0 -276 -37 -27 -112 -34 -144
-13 l-25 16 0 -75 0 -75 -45 0 -45 0 0 225 0 225 45 0 c34 0 45 -4 45 -15z
m490 -150 l0 -165 -45 0 -45 0 0 165 0 165 45 0 45 0 0 -165z m823 154 c16 -9
22 -9 25 0 2 6 25 11 53 11 l49 0 0 -165 0 -165 -49 0 c-28 0 -51 5 -53 11 -3
9 -10 9 -27 -1 -32 -16 -106 -7 -140 17 -100 74 -96 210 8 280 37 25 98 30
134 12z m382 -3 c42 -18 43 -25 10 -56 -20 -19 -35 -23 -69 -21 -35 2 -48 -2
-65 -20 -22 -24 -27 -68 -11 -99 13 -25 65 -41 94 -30 19 7 28 4 50 -19 14
-15 26 -30 26 -35 0 -4 -16 -14 -35 -22 -142 -59 -282 84 -215 220 39 82 131
117 215 82z m545 -271 l0 -45 -45 0 -45 0 0 45 0 45 45 0 45 0 0 -45z"/>
<path d="M1112 2245 c-16 -35 -16 -35 18 -35 17 0 30 2 30 5 0 11 -24 55 -30
55 -4 0 -12 -11 -18 -25z"/>
<path d="M1491 2284 c-25 -32 -27 -62 -5 -92 46 -66 143 -36 144 44 0 69 -96
102 -139 48z"/>
<path d="M1862 2287 c-30 -32 -29 -77 3 -107 35 -33 81 -31 112 4 28 34 29 65
2 100 -27 35 -86 36 -117 3z"/>
<path d="M3074 2310 c-28 -11 -54 -48 -54 -76 0 -12 9 -33 21 -48 44 -56 139
-21 139 52 0 30 -28 72 -49 72 -5 0 -15 2 -23 4 -7 3 -23 1 -34 -4z"/>
</g>
</svg>
